<svg width="189" height="23" viewBox="0 0 189 23" fill="none" xmlns="http://www.w3.org/2000/svg">
<path d="M4.94 5.924C4.94 10.214 16.692 6.73 16.692 15.518C16.692 19.756 13.338 22.434 8.32 22.434C4.238 22.434 1.04 20.38 0 17.728L3.822 15.674C4.004 17.052 5.642 18.3 8.32 18.3C11.232 18.3 12.402 17.26 12.402 15.674C12.402 10.812 0.676 14.556 0.676 6.106C0.676 2.752 3.536 0.0479997 8.034 0.0479997C11.076 0.0479997 13.728 1.01 15.964 3.454L13.052 6.522C12.038 5.066 10.296 3.948 8.164 3.948C5.902 3.948 4.94 4.936 4.94 5.924ZM27.26 6.522C30.718 6.522 34.046 9.122 34.046 14.764C34.046 15.102 34.046 15.466 34.02 15.83H24.036C24.062 15.934 24.088 16.012 24.114 16.116C24.582 17.754 25.804 18.56 27.26 18.56C28.274 18.56 29.366 18.144 29.99 17.312L33.188 19.392C31.888 21.29 29.626 22.382 27.26 22.382C23.282 22.382 20.084 19.366 20.084 14.478C20.084 9.59 23.282 6.522 27.26 6.522ZM24.218 12.684H30.016C29.678 11.124 28.508 10.344 27.156 10.344C25.804 10.344 24.608 11.202 24.218 12.684ZM47.2284 17.182L50.4004 19.314C49.1004 21.264 46.9684 22.382 44.5764 22.382C40.6244 22.382 37.4004 19.366 37.4004 14.478C37.4004 9.59 40.6244 6.522 44.5764 6.522C46.9684 6.522 49.1004 7.64 50.4004 9.59L47.2284 11.722C46.6044 10.786 45.6424 10.344 44.5764 10.344C42.7304 10.344 41.2224 11.696 41.2224 14.478C41.2224 17.234 42.7304 18.56 44.5764 18.56C45.6684 18.56 46.6304 18.092 47.2284 17.182ZM53.8033 16.844V6.704H57.6253V16.272C57.6253 17.988 58.6653 18.534 59.7833 18.534C61.0573 18.534 62.2533 17.572 62.9293 16.532V6.704H66.7513V22.2H62.9293V20.77C61.8893 21.628 60.1733 22.382 58.7173 22.382C54.9993 22.382 53.7773 19.704 53.7773 16.844H53.8033ZM79.4889 11.098C79.0729 10.448 78.3709 10.136 77.5649 10.136C76.1089 10.136 74.6009 11.306 73.9509 12.372V22.2H70.1289V6.704H73.2749L73.9509 8.108C75.2509 7.094 76.6289 6.288 78.3969 6.288C78.7089 6.288 79.2549 6.392 79.4889 6.496V11.098ZM89.4416 6.522C92.8996 6.522 96.2276 9.122 96.2276 14.764C96.2276 15.102 96.2276 15.466 96.2016 15.83H86.2176C86.2436 15.934 86.2696 16.012 86.2956 16.116C86.7636 17.754 87.9856 18.56 89.4416 18.56C90.4556 18.56 91.5476 18.144 92.1716 17.312L95.3696 19.392C94.0696 21.29 91.8076 22.382 89.4416 22.382C85.4636 22.382 82.2656 19.366 82.2656 14.478C82.2656 9.59 85.4636 6.522 89.4416 6.522ZM86.3996 12.684H92.1976C91.8596 11.124 90.6896 10.344 89.3376 10.344C87.9856 10.344 86.7896 11.202 86.3996 12.684ZM120.757 0.282H124.891V22.2H120.757L111.943 7.666V22.2H107.809V0.282H111.943L120.757 14.79V0.282ZM135.449 6.522C138.907 6.522 142.235 9.122 142.235 14.764C142.235 15.102 142.235 15.466 142.209 15.83H132.225C132.251 15.934 132.277 16.012 132.303 16.116C132.771 17.754 133.993 18.56 135.449 18.56C136.463 18.56 137.555 18.144 138.179 17.312L141.377 19.392C140.077 21.29 137.815 22.382 135.449 22.382C131.471 22.382 128.273 19.366 128.273 14.478C128.273 9.59 131.471 6.522 135.449 6.522ZM132.407 12.684H138.205C137.867 11.124 136.697 10.344 135.345 10.344C133.993 10.344 132.797 11.202 132.407 12.684ZM152.149 14.14L156.933 22.2H152.721L150.043 17.208L147.339 22.2H143.127L147.937 14.14L143.517 6.704H147.729L150.043 11.046L152.357 6.704H156.569L152.149 14.14ZM160.342 16.844V6.704H164.164V16.272C164.164 17.988 165.204 18.534 166.322 18.534C167.596 18.534 168.792 17.572 169.468 16.532V6.704H173.29V22.2H169.468V20.77C168.428 21.628 166.712 22.382 165.256 22.382C161.538 22.382 160.316 19.704 160.316 16.844H160.342ZM181.322 10.786C181.322 12.58 188.862 11.956 188.862 17.416C188.862 21.082 185.638 22.616 182.752 22.616C180.152 22.616 177.708 21.394 176.668 19.496L180.152 17.312C180.438 18.118 181.53 18.638 182.544 18.638C183.662 18.638 184.65 18.144 184.65 17.286C184.65 14.764 177.11 16.116 177.11 10.656V10.422C177.24 7.588 180.152 6.288 182.674 6.288C184.65 6.288 186.6 6.808 188.55 8.524L186.158 11.488C185.144 10.266 183.74 9.85 182.986 9.85C181.686 9.85 181.322 10.318 181.322 10.786Z" fill="#DF3D0F"/>
</svg>
